<?xml version="1.0" encoding="utf-8"?>
<!-- Generator: Adobe Illustrator 27.6.1, SVG Export Plug-In . SVG Version: 6.00 Build 0)  -->
<svg version="1.1" id="Layer_1" xmlns="http://www.w3.org/2000/svg" xmlns:xlink="http://www.w3.org/1999/xlink" x="0px" y="0px"
	 viewBox="0 0 24 24" style="enable-background:new 0 0 24 24;" xml:space="preserve">
<style type="text/css">
	.st0{fill:#545F71;}
</style>
<g>
	<path class="st0" d="M12,12c-3.3,0-6-2.7-6-6s2.7-6,6-6s6,2.7,6,6S15.3,12,12,12z M12,2.4C10,2.4,8.4,4,8.4,6S10,9.6,12,9.6
		S15.6,8,15.6,6S14,2.4,12,2.4z"/>
</g>
<g>
	<path class="st0" d="M20.4,24H3.6c-0.7,0-1.2-0.5-1.2-1.2c0-5.3,4.3-9.6,9.6-9.6c5.3,0,9.6,4.3,9.6,9.6C21.6,23.5,21.1,24,20.4,24z
		 M4.9,21.6h14.2c-0.6-3.4-3.5-6-7.1-6C8.4,15.6,5.5,18.2,4.9,21.6z"/>
</g>
</svg>
