<svg width="29" height="28" viewBox="0 0 29 28" fill="none" xmlns="http://www.w3.org/2000/svg">
<g clip-path="url(#clip0_470_23807)">
<path d="M28.5 14C28.5 6.26801 22.232 0 14.5 0C6.76801 0 0.5 6.26801 0.5 14C0.5 20.9877 5.61957 26.7796 12.3125 27.8299V18.0469H8.75781V14H12.3125V10.9156C12.3125 7.40687 14.4027 5.46875 17.6005 5.46875C19.1318 5.46875 20.7344 5.74219 20.7344 5.74219V9.1875H18.9691C17.23 9.1875 16.6875 10.2668 16.6875 11.375V14H20.5703L19.9496 18.0469H16.6875V27.8299C23.3804 26.7796 28.5 20.9877 28.5 14Z" fill="#1877F2"/>
<path d="M19.9496 18.0469L20.5703 14H16.6875V11.375C16.6875 10.2679 17.23 9.1875 18.9691 9.1875H20.7344V5.74219C20.7344 5.74219 19.1323 5.46875 17.6005 5.46875C14.4027 5.46875 12.3125 7.40688 12.3125 10.9156V14H8.75781V18.0469H12.3125V27.8299C13.762 28.0567 15.238 28.0567 16.6875 27.8299V18.0469H19.9496Z" fill="white"/>
</g>
<defs>
<clipPath id="clip0_470_23807">
<rect width="28" height="28" fill="white" transform="translate(0.5)"/>
</clipPath>
</defs>
</svg>
