<?xml version="1.0" encoding="utf-8"?>
<!-- Generator: Adobe Illustrator 27.6.1, SVG Export Plug-In . SVG Version: 6.00 Build 0)  -->
<svg version="1.1" id="Layer_1" xmlns="http://www.w3.org/2000/svg" xmlns:xlink="http://www.w3.org/1999/xlink" x="0px" y="0px"
	 viewBox="0 0 24 24" style="enable-background:new 0 0 24 24;" xml:space="preserve">
<style type="text/css">
	.st0{fill:#545F71;}
</style>
<g>
	<path class="st0" d="M18,24c-2,0-3.6-1.6-3.6-3.6c0-0.4,0.1-0.8,0.2-1.2H9.4c0.1,0.4,0.2,0.8,0.2,1.2C9.6,22.4,8,24,6,24
		s-3.6-1.6-3.6-3.6c0-0.6,0.1-1.1,0.4-1.6c-0.4-0.3-0.7-0.6-0.9-1.1c-0.4-0.9-0.2-1.9,0.5-2.6l2.3-2.3L2.9,3.9c0,0,0,0,0,0L2.6,2.4
		H1.2C0.5,2.4,0,1.9,0,1.2S0.5,0,1.2,0h2.4c0.6,0,1.1,0.4,1.2,1l0.3,1.4h17.7c0.4,0,0.8,0.2,1,0.6c0.2,0.4,0.2,0.8,0.1,1.2l-4.8,9.6
		c-0.2,0.4-0.6,0.7-1.1,0.7H6.5l-2.4,2.4H6c0,0,0,0,0,0h12c0,0,0,0,0,0c2,0,3.6,1.6,3.6,3.6C21.6,22.4,20,24,18,24z M18,19.2
		c-0.7,0-1.2,0.5-1.2,1.2c0,0.7,0.5,1.2,1.2,1.2s1.2-0.5,1.2-1.2C19.2,19.7,18.7,19.2,18,19.2z M6,19.2c-0.7,0-1.2,0.5-1.2,1.2
		c0,0.7,0.5,1.2,1.2,1.2s1.2-0.5,1.2-1.2C7.2,19.7,6.7,19.2,6,19.2z M7,12h10.3l3.6-7.2H5.5L7,12z"/>
</g>
</svg>
