<svg width="29" height="28" viewBox="0 0 29 28" fill="none" xmlns="http://www.w3.org/2000/svg">
<g clip-path="url(#clip0_470_4356)">
<path d="M28.2268 14.3223C28.2268 13.3706 28.1496 12.4138 27.985 11.4775H14.7798V16.8687H22.3418C22.028 18.6074 21.0197 20.1456 19.5433 21.123V24.621H24.0548C26.7041 22.1827 28.2268 18.5817 28.2268 14.3223Z" fill="#4285F4"/>
<path d="M14.7798 28.0009C18.5557 28.0009 21.7399 26.7611 24.06 24.6211L19.5485 21.1231C18.2933 21.977 16.6729 22.4606 14.7849 22.4606C11.1325 22.4606 8.03572 19.9965 6.92456 16.6836H2.26904V20.2897C4.64567 25.0172 9.48639 28.0009 14.7798 28.0009Z" fill="#34A853"/>
<path d="M6.91941 16.6837C6.33297 14.9449 6.33297 13.0621 6.91941 11.3234V7.71729H2.26904C0.283368 11.6732 0.283368 16.3339 2.26904 20.2898L6.91941 16.6837Z" fill="#FBBC04"/>
<path d="M14.7798 5.54127C16.7757 5.51041 18.7048 6.26146 20.1504 7.64012L24.1474 3.64305C21.6165 1.26642 18.2573 -0.0402103 14.7798 0.000943444C9.48638 0.000943444 4.64567 2.98459 2.26904 7.71728L6.91942 11.3234C8.02542 8.00536 11.1274 5.54127 14.7798 5.54127Z" fill="#EA4335"/>
</g>
<defs>
<clipPath id="clip0_470_4356">
<rect width="28" height="28" fill="white" transform="translate(0.5)"/>
</clipPath>
</defs>
</svg>
