<?xml version="1.0" encoding="utf-8"?>
<!-- Generator: Adobe Illustrator 27.6.1, SVG Export Plug-In . SVG Version: 6.00 Build 0)  -->
<svg version="1.1" id="Layer_1" xmlns="http://www.w3.org/2000/svg" xmlns:xlink="http://www.w3.org/1999/xlink" x="0px" y="0px"
	 viewBox="0 0 50 50" style="enable-background:new 0 0 50 50;" xml:space="preserve">
<style type="text/css">
	.st0{fill:#542A1D;}
</style>
<g>
	<path class="st0" d="M43.77,1.05c-0.71,0.43-1.35,1-1.77,1.73c-0.12,0.19-0.21,0.4-0.24,0.63l0.05-0.04c1-0.8,2.2-1.3,3.41-1.68
		c0.53-0.15,1.05-0.38,1.6-0.4c-0.63,0.13-1.22,0.38-1.81,0.63c-0.77,0.33-1.54,0.68-2.26,1.12c-0.32,0.17-0.6,0.41-0.93,0.55
		c0.33,0.21,0.73,0.25,1.11,0.32c1.37,0.2,2.72-0.28,3.94-0.86c0.48-0.21,0.94-0.48,1.38-0.77C48.93,1.8,49.45,1.12,50,0.5
		C47.99-0.35,45.6-0.09,43.77,1.05z"/>
	<path class="st0" d="M46.74,6.76c0.72-0.29,1.36-0.74,1.98-1.19c-0.02-0.02-0.06-0.07-0.08-0.09c-1.14-0.79-2.5-1.31-3.9-1.28
		C44,4.23,43.25,4.34,42.54,4.55c-0.96,0.3-1.93,0.84-2.44,1.73c0.18-0.05,0.35-0.14,0.53-0.19c1.53-0.48,3.14-0.68,4.73-0.64
		c-1.57,0.08-3.1,0.45-4.62,0.85c-0.22,0.07-0.44,0.15-0.66,0.21c0.19,0.3,0.53,0.46,0.83,0.61c1.14,0.48,2.41,0.4,3.6,0.23
		C45.27,7.23,46.03,7.05,46.74,6.76z"/>
	<path class="st0" d="M34.68,7.12c0.28-0.5,0.62-0.96,0.98-1.41c0.71-0.92,1.49-1.8,2.4-2.53c-0.81,0.88-1.55,1.82-2.26,2.78
		c-0.35,0.44-0.64,0.93-0.96,1.4l-0.05,0.07c0.58,0.1,1.17-0.09,1.69-0.34c1.92-1.05,3.29-2.95,3.92-5.02
		c0.11-0.31,0.17-0.63,0.31-0.93c-0.49,0.06-0.98,0.11-1.46,0.25c-1.17,0.29-2.2,0.98-3.01,1.84c-0.5,0.57-0.98,1.17-1.26,1.88
		c-0.27,0.67-0.48,1.41-0.39,2.14C34.6,7.21,34.65,7.15,34.68,7.12z"/>
	<path class="st0" d="M29.83,10.63c0.09,0.46,0.23,0.94,0.5,1.34c0.01-0.42,0.06-0.84,0.14-1.25c0.2-1.05,0.47-2.09,0.86-3.08
		c0.13-0.31,0.27-0.61,0.42-0.91c-0.17,0.54-0.35,1.08-0.48,1.63c-0.3,1.17-0.54,2.35-0.73,3.54l-0.02,0.13
		c0.94-0.36,1.57-1.23,1.98-2.12c0.51-1.21,0.9-2.5,0.87-3.83c0.01-0.75-0.16-1.49-0.22-2.24c-0.51,0.33-1.05,0.64-1.49,1.06
		c-0.51,0.48-0.91,1.07-1.2,1.71C30.18,7.14,30,7.72,29.88,8.3c-0.16,0.76-0.2,1.56-0.07,2.32L29.83,10.63z"/>
	<path class="st0" d="M43.93,8.9c-0.72-0.49-1.56-0.8-2.41-0.93c-1.7-0.25-3.5,0.15-4.9,1.13c-0.47,0.35-0.91,0.76-1.16,1.29
		c0.22-0.1,0.43-0.21,0.66-0.29c1.36-0.55,2.81-0.86,4.27-1.01c0.05,0,0.15,0.01,0.2,0.02c-0.53,0.08-1.05,0.2-1.57,0.3
		c-0.93,0.25-1.85,0.57-2.76,0.9c-0.24,0.11-0.49,0.2-0.72,0.31c0.78,0.58,1.79,0.75,2.74,0.72c1.18-0.07,2.36-0.35,3.43-0.86
		C42.53,10.1,43.27,9.53,43.93,8.9z"/>
	<path class="st0" d="M24.67,19.63c0.28,0.29,0.56,0.6,0.95,0.74c0-0.01-0.01-0.04-0.02-0.05c-0.01-0.03-0.05-0.1-0.06-0.13
		c-0.49-1.16-0.86-2.38-1.1-3.62c-0.08-0.45-0.19-0.9-0.18-1.36c0.35,1.67,0.9,3.28,1.52,4.86c0.04,0.09,0.07,0.18,0.1,0.28
		c0.55-0.79,0.76-1.78,0.67-2.73c-0.09-1.08-0.37-2.14-0.78-3.15c-0.39-0.9-0.95-1.74-1.61-2.45c-0.65,1.01-1.06,2.19-1.01,3.4
		C23.18,16.92,23.62,18.5,24.67,19.63z"/>
	<path class="st0" d="M39.9,12.4c-1.23-0.42-2.58-0.53-3.85-0.23c-1.21,0.23-2.36,0.8-3.25,1.65c-0.37,0.4-0.76,0.83-0.91,1.36
		c0.14-0.08,0.28-0.18,0.43-0.26c1.37-0.75,2.84-1.31,4.35-1.69c0.03,0.01,0.1,0.02,0.13,0.03c-0.15,0.01-0.29,0.05-0.42,0.1
		c-1.33,0.49-2.61,1.09-3.86,1.76c-0.19,0.11-0.4,0.19-0.6,0.29c0.32,0.28,0.76,0.41,1.17,0.47c0.79,0.12,1.59-0.03,2.35-0.25
		c1.06-0.29,2.09-0.78,2.93-1.49C38.99,13.66,39.49,13.05,39.9,12.4z"/>
	<path class="st0" d="M27.51,16.11l-0.02-0.12c-0.06-0.34-0.11-0.69-0.15-1.04c-0.19-1.38-0.06-2.79,0.2-4.15
		c0.01,0.39-0.02,0.79-0.04,1.18c-0.05,1.39,0.08,2.79,0.23,4.17c0.22-0.01,0.36-0.29,0.52-0.44c0.64-0.86,0.91-1.95,0.98-3
		c0.07-0.95,0.05-1.92-0.19-2.85c-0.17-0.76-0.5-1.47-0.86-2.17c-0.91,0.8-1.55,1.88-1.82,3.06c-0.31,1.36-0.31,2.84,0.25,4.14
		C26.86,15.33,27.08,15.81,27.51,16.11z"/>
	<path class="st0" d="M33.38,22.12c-0.56,0.07-1.13,0.11-1.69,0.24c-1.68,0.36-3.29,1.2-4.41,2.51c-0.56,0.64-0.93,1.43-1.07,2.27
		l0.08-0.08c0.55-0.61,1.2-1.12,1.84-1.62c0.75-0.54,1.52-1.06,2.35-1.45c-0.62,0.46-1.31,0.85-1.89,1.38
		c-0.74,0.6-1.47,1.21-2.15,1.88c-0.02,0.02-0.07,0.06-0.09,0.08c1.17,0.26,2.42-0.09,3.42-0.71c1.18-0.68,2.25-1.62,2.92-2.83
		C33,23.26,33.17,22.68,33.38,22.12z"/>
	<path class="st0" d="M35.74,16.82c-0.75-0.06-1.51-0.11-2.25,0.02c-0.59,0.11-1.17,0.26-1.73,0.5c-1.04,0.43-2,1.09-2.71,1.97
		c-0.35,0.48-0.67,1.01-0.75,1.61c0.04-0.03,0.12-0.1,0.15-0.13c0.56-0.49,1.19-0.9,1.81-1.31c0.68-0.41,1.4-0.76,2.12-1.1
		c0.16-0.08,0.33-0.15,0.5-0.19c-0.12,0.07-0.25,0.13-0.38,0.2c-1.36,0.72-2.61,1.63-3.84,2.56c-0.09,0.07-0.2,0.14-0.27,0.24
		c1.05,0.44,2.22,0.14,3.23-0.26C33.47,20.17,35.07,18.69,35.74,16.82z"/>
	<path class="st0" d="M20.97,29.27c0.54,0.57,1.23,1.03,2,1.22c0.1,0.01,0.22,0.08,0.31,0.02c-0.58-0.52-1.04-1.16-1.48-1.8
		c-0.52-0.81-0.98-1.65-1.43-2.5c0.26,0.32,0.47,0.68,0.7,1.02c0.73,1.12,1.55,2.17,2.42,3.19c0.38-0.94,0.13-2-0.25-2.9
		c-0.36-0.85-0.91-1.61-1.5-2.33c-0.71-0.87-1.63-1.53-2.55-2.14c-0.1,0.73-0.19,1.46-0.13,2.2C19.19,26.75,19.91,28.19,20.97,29.27
		z"/>
	<path class="st0" d="M23.82,24.89c0.09,0.04,0.18,0.09,0.28,0.07c-0.09-0.11-0.18-0.22-0.24-0.34c-0.27-0.51-0.57-1.02-0.78-1.56
		c-0.26-0.6-0.49-1.21-0.66-1.84c-0.11-0.41-0.26-0.81-0.29-1.23c0.55,1.68,1.29,3.31,2.17,4.85c0.01,0.02,0.04,0.06,0.05,0.07
		c0.2-0.37,0.33-0.77,0.41-1.19c0.09-0.64-0.01-1.28-0.15-1.91c-0.26-0.99-0.62-1.96-1.17-2.83c-0.5-0.83-1.2-1.52-1.91-2.18
		c-0.39,0.87-0.65,1.82-0.64,2.78c0.05,1.61,0.66,3.22,1.75,4.42C22.97,24.36,23.37,24.67,23.82,24.89z"/>
	<path class="st0" d="M45.28,28.2c-2.23,1.03-4.34,2.31-6.26,3.83c-1.74,1.34-3.3,2.9-4.7,4.59c-0.97,1.18-1.83,2.45-2.6,3.77
		c-0.18,0.3-0.31,0.64-0.53,0.92c0.17-0.47,0.39-0.92,0.57-1.38c0.49-1.08,1.02-2.14,1.57-3.2c0.24-0.44,0.49-0.87,0.74-1.3
		c0.76-1.26,1.57-2.49,2.44-3.68c1.87-2.47,3.98-4.76,6.32-6.79v-0.01c1.88-1.57,3.82-3.07,5.93-4.32c-0.37,0.09-0.69,0.3-1.04,0.45
		c-1.89,0.84-3.74,1.78-5.48,2.91c-1.59,1.05-3.11,2.21-4.53,3.47c-2.22,2.06-4.22,4.35-5.85,6.9c-0.75,1.14-1.4,2.33-1.98,3.56
		c-1.2,2.45-2.06,5.06-2.67,7.72c-0.08,0.3-0.09,0.62-0.21,0.92c-0.07-0.44-0.15-0.87-0.25-1.3c-0.36-1.74-0.72-3.48-0.94-5.25
		c-0.28-2.03-0.5-4.08-0.61-6.13c-0.07-2.1,0.03-4.21,0.31-6.3c0.11-1.17,0.42-2.31,0.7-3.45c0.36-1.39,0.79-2.77,1.33-4.1
		c0.63-1.45,1.36-2.86,2.2-4.21c0.38-0.67,0.83-1.28,1.28-1.9c0.87-1.21,1.86-2.34,2.89-3.41c0.67-0.67,1.32-1.37,2.06-1.97
		c0.99-0.87,2.07-1.63,3.1-2.46c-0.85,0.49-1.61,1.11-2.42,1.66c-1.27,0.99-2.52,2.01-3.67,3.13c-0.88,0.84-1.64,1.78-2.43,2.7
		c-0.02,0.03-0.06,0.08-0.08,0.11c-0.41,0.51-0.79,1.04-1.17,1.58c-0.29,0.43-0.59,0.85-0.86,1.29c-0.43,0.72-0.85,1.46-1.23,2.21
		c-0.09,0.18-0.18,0.36-0.26,0.55c-0.26,0.58-0.52,1.17-0.77,1.75c-0.21,0.48-0.37,0.97-0.55,1.46c-0.35,1.1-0.66,2.22-0.93,3.34
		c-0.14,0.65-0.26,1.31-0.35,1.97c-0.12,1.03-0.25,2.07-0.3,3.11c-0.14,2.69-0.03,5.39,0.29,8.06c0.18,2.07,0.54,4.11,0.92,6.15
		c0.25,1.19,0.5,2.37,0.77,3.55c-0.17,0-0.34-0.01-0.51-0.03c-0.26-1.02-0.58-2.01-0.95-3c-0.46-1.3-1.01-2.56-1.61-3.81
		c-0.74-1.42-1.47-2.85-2.35-4.19c-2-3.15-4.46-6-7.21-8.53c-2-1.92-4.26-3.56-6.59-5.05c-1.58-1-3.26-1.82-4.96-2.58
		C1.26,21.34,0.66,20.99,0,20.84c1.41,0.75,2.72,1.68,4.04,2.58c1.46,1.1,2.9,2.23,4.25,3.46c2.85,2.56,5.41,5.45,7.65,8.55
		c1.34,1.83,2.55,3.75,3.6,5.76c-1.21-1.79-2.56-3.49-4.04-5.06c-1.46-1.55-3.06-2.96-4.75-4.26l-0.01,0
		c-2.89-2.21-6.13-3.98-9.58-5.16c0.21,0.15,0.47,0.24,0.7,0.37c2.92,1.47,5.52,3.48,7.95,5.65l0,0.01c1.49,1.37,2.9,2.85,4.17,4.42
		c1.15,1.33,2.14,2.79,3.11,4.25c1.52,2.34,2.8,4.84,3.87,7.41c-0.47-0.01-0.94,0.03-1.41,0.03c-1.89,0.09-3.78,0.13-5.66,0.28
		c-0.55,0.05-1.1,0.08-1.64,0.23c0.04,0.14,0.21,0.12,0.32,0.15c3.9,0.38,7.83,0.42,11.74,0.46c3.99,0.02,7.99,0,11.98-0.14
		c1.4-0.05,2.8-0.12,4.19-0.25c0.24-0.04,0.5-0.03,0.72-0.15c-0.04-0.08-0.11-0.13-0.2-0.13c-0.99-0.21-2-0.23-3-0.3
		c-2.33-0.12-4.66-0.19-6.99-0.2c0.68-2.65,1.7-5.2,2.99-7.61c1.59-2.91,3.6-5.59,5.95-7.93c1.78-1.82,3.76-3.43,5.9-4.82l0.01,0
		c0.96-0.63,1.98-1.16,3-1.68c-0.37,0.06-0.7,0.24-1.05,0.36C46.96,27.46,46.11,27.82,45.28,28.2z"/>
	<path class="st0" d="M26.48,33.71c-0.08,0.08-0.16,0.17-0.21,0.27c0.73,0.03,1.47-0.15,2.11-0.5c1.31-0.66,2.31-1.83,2.96-3.13
		c0.43-0.84,0.47-1.79,0.68-2.7c-0.73,0.23-1.48,0.44-2.15,0.83c-1.29,0.75-2.45,1.78-3.18,3.09c-0.34,0.67-0.61,1.4-0.61,2.16
		c0.05-0.04,0.16-0.11,0.21-0.15c0.35-0.43,0.74-0.82,1.12-1.21c0.73-0.7,1.43-1.44,2.23-2.06c-0.65,0.68-1.27,1.38-1.9,2.07
		C27.31,32.82,26.89,33.26,26.48,33.71z"/>
</g>
</svg>
